<svg aria-hidden="true" style="position: absolute; width: 0; height: 0; overflow: hidden;" version="1.1" xmlns="http://www.w3.org/2000/svg" xmlns:xlink="http://www.w3.org/1999/xlink">
<defs>
<symbol id="icon-plugin" viewBox="0 0 20 20">
<title>plugin</title>
<path d="M4 12c-1.105 0-2-0.895-2-2s0.895-2 2-2v0c1.105 0 2 0.895 2 2s-0.895 2-2 2v0zM10 12c-1.105 0-2-0.895-2-2s0.895-2 2-2v0c1.105 0 2 0.895 2 2s-0.895 2-2 2v0zM16 12c-1.105 0-2-0.895-2-2s0.895-2 2-2v0c1.105 0 2 0.895 2 2s-0.895 2-2 2v0z"></path>
</symbol>
<symbol id="icon-mobile" viewBox="0 0 32 32">
<title>mobile</title>
<path d="M23 0h-14c-1.65 0-3 1.35-3 3v26c0 1.65 1.35 3 3 3h14c1.65 0 3-1.35 3-3v-26c0-1.65-1.35-3-3-3zM12 1.5h8v1h-8v-1zM16 30c-1.105 0-2-0.895-2-2s0.895-2 2-2 2 0.895 2 2-0.895 2-2 2zM24 24h-16v-20h16v20z"></path>
</symbol>
<symbol id="icon-tool" viewBox="0 0 32 32">
<title>tool</title>
<path d="M31.342 25.559l-14.392-12.336c0.67-1.259 1.051-2.696 1.051-4.222 0-4.971-4.029-9-9-9-0.909 0-1.787 0.135-2.614 0.386l5.2 5.2c0.778 0.778 0.778 2.051 0 2.828l-3.172 3.172c-0.778 0.778-2.051 0.778-2.828 0l-5.2-5.2c-0.251 0.827-0.386 1.705-0.386 2.614 0 4.971 4.029 9 9 9 1.526 0 2.963-0.38 4.222-1.051l12.336 14.392c0.716 0.835 1.938 0.882 2.716 0.104l3.172-3.172c0.778-0.778 0.731-2-0.104-2.716z"></path>
</symbol>
<symbol id="icon-network" viewBox="0 0 32 32">
<title>network</title>
<path d="M16 0c-8.837 0-16 7.163-16 16s7.163 16 16 16 16-7.163 16-16-7.163-16-16-16zM16 30c-1.967 0-3.84-0.407-5.538-1.139l7.286-8.197c0.163-0.183 0.253-0.419 0.253-0.664v-3c0-0.552-0.448-1-1-1-3.531 0-7.256-3.671-7.293-3.707-0.188-0.188-0.442-0.293-0.707-0.293h-4c-0.552 0-1 0.448-1 1v6c0 0.379 0.214 0.725 0.553 0.894l3.447 1.724v5.871c-3.627-2.53-6-6.732-6-11.489 0-2.147 0.484-4.181 1.348-6h3.652c0.265 0 0.52-0.105 0.707-0.293l4-4c0.188-0.188 0.293-0.442 0.293-0.707v-2.419c1.268-0.377 2.61-0.581 4-0.581 2.2 0 4.281 0.508 6.134 1.412-0.13 0.109-0.256 0.224-0.376 0.345-1.133 1.133-1.757 2.64-1.757 4.243s0.624 3.109 1.757 4.243c1.139 1.139 2.663 1.758 4.239 1.758 0.099 0 0.198-0.002 0.297-0.007 0.432 1.619 1.211 5.833-0.263 11.635-0.014 0.055-0.022 0.109-0.026 0.163-2.541 2.596-6.084 4.208-10.004 4.208z"></path>
</symbol>
<symbol id="icon-simple" viewBox="0 0 32 32">
<title>simple</title>
<path d="M16 32c8.837 0 16-7.163 16-16s-7.163-16-16-16-16 7.163-16 16 7.163 16 16 16zM16 3c7.18 0 13 5.82 13 13s-5.82 13-13 13-13-5.82-13-13 5.82-13 13-13zM16 18.711c3.623 0 7.070-0.963 10-2.654-0.455 5.576-4.785 9.942-10 9.942s-9.544-4.371-10-9.947c2.93 1.691 6.377 2.658 10 2.658zM8 11c0-1.657 0.895-3 2-3s2 1.343 2 3c0 1.657-0.895 3-2 3s-2-1.343-2-3zM20 11c0-1.657 0.895-3 2-3s2 1.343 2 3c0 1.657-0.895 3-2 3s-2-1.343-2-3z"></path>
</symbol>
<symbol id="icon-cross-platform" viewBox="0 0 32 32">
<title>cross-platform</title>
<path d="M0 2v28h32v-28h-32zM30 28h-28v-24h28v24zM28 6h-24v20h24v-20zM14 16h-2v2h-2v2h-2v-2h2v-2h2v-2h-2v-2h-2v-2h2v2h2v2h2v2zM22 20h-6v-2h6v2z"></path>
</symbol>
</defs>
</svg>
